<svg width="18" height="22" viewBox="0 0 18 22" fill="none" xmlns="http://www.w3.org/2000/svg">
<path d="M16.4078 6.55445C15.7549 5.98434 15.0143 5.49686 14.2063 5.11035L13.6797 5.49191L14.9412 10.5271L15.4371 10.6587C17.2681 10.1753 17.864 7.82611 16.4078 6.55445Z" fill="#454D58"/>
<path d="M14.6946 15.4458C14.3792 15.0868 13.9765 14.7817 13.4844 14.5607C12.5132 14.1246 11.9157 13.5461 11.9157 12.9053C11.9157 12.2163 12.6052 11.6012 13.7042 11.1567L14.206 10.6584L12.377 4.63577L11.4551 3.95703L10.8101 4.16105C5.03582 3.56748 0.0419922 7.67662 0.0419922 12.9053C0.0419922 19.0887 6.88055 23.342 13.2015 21.1163C14.4842 20.6647 15.2504 19.634 15.4797 18.5015L15.8522 18.181L15.38 15.5988L14.6946 15.4458Z" fill="#454D58"/>
<path d="M2.72741 12.9063C2.72741 8.23327 6.71646 4.45494 11.6864 4.12834L11.4551 3.95801L10.8101 4.16202C5.03582 3.5685 0.0419922 7.67764 0.0419922 12.9063C0.0419922 18.3934 5.42701 22.3598 11.0567 21.6286C6.51438 21.0392 2.72741 17.5076 2.72741 12.9063Z" fill="#262626"/>
<path d="M5.05595 10.3228C5.85433 10.3228 6.50155 9.67562 6.50155 8.87724C6.50155 8.07886 5.85433 7.43164 5.05595 7.43164C4.25757 7.43164 3.61035 8.07886 3.61035 8.87724C3.61035 9.67562 4.25757 10.3228 5.05595 10.3228Z" fill="#F87C68"/>
<path d="M8.9698 8.46205C9.74433 8.46205 10.3722 7.83417 10.3722 7.05964C10.3722 6.28511 9.74433 5.65723 8.9698 5.65723C8.19527 5.65723 7.56738 6.28511 7.56738 7.05964C7.56738 7.83417 8.19527 8.46205 8.9698 8.46205Z" fill="#FFD064"/>
<path d="M5.7696 18.7453C6.54413 18.7453 7.17202 18.1174 7.17202 17.3428C7.17202 16.5683 6.54413 15.9404 5.7696 15.9404C4.99507 15.9404 4.36719 16.5683 4.36719 17.3428C4.36719 18.1174 4.99507 18.7453 5.7696 18.7453Z" fill="#5291D9"/>
<path d="M9.85359 20.0568C10.6281 20.0568 11.256 19.4289 11.256 18.6544C11.256 17.8798 10.6281 17.252 9.85359 17.252C9.07905 17.252 8.45117 17.8798 8.45117 18.6544C8.45117 19.4289 9.07905 20.0568 9.85359 20.0568Z" fill="#95D6A4"/>
<path d="M3.45183 14.9457C4.38634 14.9457 5.1439 14.1881 5.1439 13.2536C5.1439 12.3191 4.38634 11.5615 3.45183 11.5615C2.51733 11.5615 1.75977 12.3191 1.75977 13.2536C1.75977 14.1881 2.51733 14.9457 3.45183 14.9457Z" fill="#FF94D5"/>
<path d="M5.04933 8.87728C5.04933 8.34095 5.34165 7.87314 5.77546 7.62363C5.56354 7.50172 5.31802 7.43164 5.05595 7.43164C4.25755 7.43164 3.61035 8.07888 3.61035 8.87724C3.61035 9.6756 4.25759 10.3228 5.05595 10.3228C5.31797 10.3228 5.5635 10.2528 5.77546 10.1309C5.34165 9.88142 5.04933 9.41362 5.04933 8.87728Z" fill="#EC625E"/>
<path d="M9.00636 7.05964C9.00636 6.54818 9.28024 6.10079 9.68926 5.85583C9.47889 5.7298 9.23285 5.65723 8.96979 5.65723C8.19524 5.65723 7.56738 6.28513 7.56738 7.05964C7.56738 7.83415 8.19524 8.46205 8.96979 8.46205C9.23285 8.46205 9.47893 8.38948 9.68926 8.26345C9.28029 8.01844 9.00636 7.5711 9.00636 7.05964Z" fill="#FFC250"/>
<path d="M5.80617 17.3428C5.80617 16.8314 6.08005 16.384 6.48911 16.139C6.27874 16.013 6.0327 15.9404 5.7696 15.9404C4.99509 15.9404 4.36719 16.5683 4.36719 17.3428C4.36719 18.1174 4.99509 18.7453 5.7696 18.7453C6.03266 18.7453 6.27874 18.6727 6.48911 18.5467C6.08005 18.3016 5.80617 17.8543 5.80617 17.3428Z" fill="#2E82D4"/>
<path d="M9.89011 18.6544C9.89011 18.1429 10.164 17.6955 10.5731 17.4506C10.3627 17.3245 10.1166 17.252 9.85358 17.252C9.07903 17.252 8.45117 17.8799 8.45117 18.6544C8.45117 19.4289 9.07903 20.0568 9.85358 20.0568C10.1166 20.0568 10.3627 19.9842 10.5731 19.8582C10.164 19.6132 9.89011 19.1658 9.89011 18.6544Z" fill="#78C2A4"/>
<path d="M3.19875 13.2536C3.19875 12.5764 3.59668 11.9925 4.1713 11.722C3.95294 11.6192 3.70913 11.5615 3.45183 11.5615C2.51735 11.5615 1.75977 12.3191 1.75977 13.2536C1.75977 14.1881 2.51731 14.9457 3.45183 14.9457C3.70917 14.9457 3.95294 14.888 4.1713 14.7852C3.59668 14.5147 3.19875 13.9307 3.19875 13.2536Z" fill="#FF72C7"/>
<path d="M14.361 2.28957C14.035 1.09057 12.9261 1.10548 11.9116 0.0957609C11.7351 -0.0798094 11.4532 -0.00315315 11.3899 0.237601C11.0263 1.62201 10.0625 2.17064 10.3885 3.36959C10.6509 4.33454 11.5106 4.76406 11.9912 4.93293L12.2631 5.15456L13.6796 4.82258L13.7705 4.44918C14.0995 4.06019 14.6233 3.25452 14.361 2.28957Z" fill="#E39B74"/>
<path d="M13.2936 4.77059C12.813 4.60168 11.9533 4.17216 11.6909 3.20726C11.4087 2.16943 12.0927 1.61849 12.5176 0.591406C12.3164 0.454593 12.1121 0.295351 11.9116 0.0957609C11.7351 -0.0798094 11.4532 -0.00315315 11.3899 0.237601C11.0263 1.62201 10.0625 2.17064 10.3885 3.36959C10.6509 4.33454 11.5106 4.76406 11.9912 4.93293L12.263 5.15456L13.4293 4.88123L13.2936 4.77059Z" fill="#DD8858"/>
<path d="M14.1132 4.76732C14.049 4.53125 13.8056 4.39186 13.5695 4.45606L12.1687 4.83693C11.9326 4.90113 11.7932 5.14455 11.8574 5.38066L12.571 8.00523L12.8278 8.19232L14.746 7.73492L14.8268 7.3919L14.1132 4.76732Z" fill="#477B9E"/>
<path d="M13.7755 7.76132L13.0142 4.9613C12.979 4.83175 13.0015 4.70036 13.0657 4.59375L12.1687 4.83764C11.9326 4.90184 11.7932 5.14525 11.8574 5.38137L12.571 8.00594L12.8278 8.19303L13.9882 7.91631L13.7755 7.76132Z" fill="#3F6D8E"/>
<path d="M17.951 20.8712C17.9357 19.382 17.7041 17.903 17.2634 16.4805L14.847 8.77818L14.5317 8.55762L13.334 8.82875L13.2549 9.21104L15.0712 17.0765C15.4114 18.5264 15.9606 19.9191 16.7014 21.211L17.0073 21.7444C17.1225 21.9453 17.3587 22.043 17.5821 21.9823C17.8055 21.9215 17.9597 21.7176 17.9573 21.4861L17.951 20.8712Z" fill="#FFD064"/>
<path d="M17.7427 20.7677C17.0019 19.4758 16.4528 18.0831 16.1125 16.6332L14.2962 8.76775L14.3304 8.60254L13.334 8.82808L13.2549 9.21037L15.0712 17.0758C15.4114 18.5257 15.9606 19.9184 16.7014 21.2103L17.0073 21.7438C17.1225 21.9446 17.3587 22.0423 17.5821 21.9816C17.8055 21.9208 17.9597 21.7169 17.9573 21.4854L17.9537 21.1356L17.7427 20.7677Z" fill="#FFC250"/>
<path d="M14.76 7.40392L12.6333 7.9821C12.4326 8.03667 12.3142 8.24357 12.3688 8.44427L12.5252 9.01958C12.5797 9.22025 12.7866 9.33871 12.9873 9.28414L15.114 8.70595C15.3147 8.65138 15.4331 8.44449 15.3786 8.24382L15.2221 7.66852C15.1676 7.46777 14.9606 7.34935 14.76 7.40392Z" fill="#5895B7"/>
<path d="M13.8605 8.6652L13.6935 8.05092C13.655 7.90955 13.6974 7.76556 13.792 7.66699L12.6333 7.982C12.4326 8.03657 12.3142 8.24346 12.3688 8.44417L12.5252 9.01948C12.5797 9.22014 12.7866 9.33861 12.9873 9.28404L14.1893 8.95726C14.0363 8.9344 13.9037 8.82401 13.8605 8.6652Z" fill="#477B9E"/>
</svg>
