<svg width="22" height="18" viewBox="0 0 22 18" fill="none" xmlns="http://www.w3.org/2000/svg">
<path d="M6.65545 1.62329V1.53056C6.65545 1.16309 6.35759 0.865234 5.99012 0.865234H4.73564C4.36817 0.865234 4.07031 1.16309 4.07031 1.53056V1.57637L6.65545 1.62329Z" fill="#EDC963"/>
<path d="M17.9299 1.57637V1.53056C17.9299 1.16309 17.632 0.865234 17.2645 0.865234H16.0101C15.6426 0.865234 15.3447 1.16309 15.3447 1.53056V1.62329L17.9299 1.57637Z" fill="#EDC963"/>
<path d="M17.9299 2.37473V1.57633C17.5447 1.44485 17.1319 1.37305 16.7022 1.37305C16.2238 1.37305 15.7662 1.46169 15.3447 1.62321V2.42161L17.9299 2.37473Z" fill="#E7B93E"/>
<path d="M5.29798 2.17148C5.77639 2.17148 6.23397 2.26013 6.65545 2.42169V1.53056C6.65545 1.16309 6.35759 0.865234 5.99012 0.865234H4.73564C4.36817 0.865234 4.07031 1.16309 4.07031 1.53056V2.37477C4.45544 2.24329 4.86824 2.17148 5.29798 2.17148Z" fill="#EDC963"/>
<path d="M6.65545 2.42157V1.62321C6.23397 1.46165 5.77643 1.37305 5.29798 1.37305C4.86824 1.37305 4.45544 1.44485 4.07031 1.57633V2.37473L6.65545 2.42157Z" fill="#E7B93E"/>
<path d="M1.45243 16.4642C3.44511 17.3478 4.42011 16.0233 4.85611 14.7306L5.91014 11.5922C5.91018 11.5922 5.91022 11.5922 5.91027 11.5923L5.91022 11.5922L6.13993 11.3074C6.13993 11.3074 6.79005 11.6593 7.34237 11.6593C8.00104 11.6593 8.59818 11.3973 9.03637 10.9723C9.07698 10.933 9.13189 10.9119 9.18844 10.9119H12.8107C12.8672 10.9119 12.9221 10.933 12.9627 10.9723C13.401 11.3973 13.9981 11.6593 14.6567 11.6593C15.209 11.6593 15.8592 11.3074 15.8592 11.3074L16.0889 11.5922L17.1424 14.729C17.5775 16.0229 19.2858 17.0629 20.5466 16.5395C21.3091 16.223 21.9653 15.2704 21.9653 14.3776L20.4671 5.45552L20.4661 5.45629C20.2148 3.60116 18.6257 2.1709 16.7017 2.1709C15.6157 2.1709 14.6369 2.62718 13.9446 3.35787H8.05441C7.36214 2.62718 6.38339 2.1709 5.29732 2.1709C3.37326 2.1709 1.78428 3.60116 1.53295 5.45629L1.53196 5.45552L0.0322266 14.3864L0.0337305 14.3775C-0.000472654 15.4769 0.689863 16.1477 1.45243 16.4642Z" fill="#454D58"/>
<path d="M1.45291 16.1534C0.690342 15.8369 0.168315 15.1558 0.0342091 14.377L0.0327052 14.3858C-0.148924 15.4675 0.439877 16.5314 1.45287 16.9518C2.71396 17.4752 4.15453 16.8204 4.58924 15.526L4.85659 14.7299C4.42059 16.0227 2.71322 16.6765 1.45291 16.1534Z" fill="#3C434C"/>
<path d="M21.9655 14.3779C21.8314 15.1567 21.3094 15.8379 20.5468 16.1544C19.2859 16.6777 17.5777 16.0232 17.1426 14.7293L17.4104 15.527C17.8452 16.8213 19.2857 17.4762 20.5468 16.9528C21.5598 16.5323 22.1486 15.4684 21.9669 14.3868L21.9655 14.3779Z" fill="#3C434C"/>
<path d="M15.9172 11.0782C15.8704 10.9389 15.7033 10.8826 15.5822 10.9656C15.3082 11.1533 15.0781 11.2601 14.6577 11.2601C13.999 11.2601 13.4019 10.9982 12.9637 10.5732C12.9231 10.5338 12.8682 10.5127 12.8116 10.5127H9.18939C9.13285 10.5127 9.07793 10.5338 9.03733 10.5732C8.59909 10.9982 8.00195 11.2601 7.34328 11.2601C6.92283 11.2601 6.69286 11.1533 6.4189 10.9656C6.29772 10.8826 6.13062 10.9389 6.08382 11.0782L5.91113 11.5923C6.31306 11.8852 6.80781 12.0585 7.34324 12.0585C8.03259 12.0585 8.65456 11.7716 9.09748 11.3111H12.9034C13.3463 11.7716 13.9683 12.0585 14.6576 12.0585C15.1931 12.0585 15.6879 11.8852 16.0898 11.5922L15.9172 11.0782Z" fill="#3C434C"/>
<path d="M6.46289 9.25364C6.46289 9.64947 6.99171 10.2961 7.42599 10.2961C7.86028 10.2961 8.38909 9.64641 8.38909 9.25364C8.23239 8.87603 7.86028 8.61035 7.42599 8.61035C6.99171 8.61035 6.61955 8.87603 6.46289 9.25364Z" fill="#DAD8DB"/>
<path d="M6.43824 5.35301H6.03025V4.94506C6.03025 4.55525 5.71425 4.23926 5.32444 4.23926C4.93463 4.23926 4.61864 4.55525 4.61864 4.94506V5.35301H4.21069C3.82088 5.35301 3.50488 5.669 3.50488 6.05881C3.50488 6.44863 3.82088 6.76462 4.21069 6.76462H4.61864V7.17256C4.61864 7.56238 4.93463 7.87837 5.32444 7.87837C5.71425 7.87837 6.03025 7.56238 6.03025 7.17256V6.76462H6.43824C6.82805 6.76462 7.14404 6.44863 7.14404 6.05881C7.144 5.669 6.82801 5.35301 6.43824 5.35301Z" fill="#B3E59F"/>
<path d="M6.43824 5.35301H6.03025V4.94506C6.03025 4.55525 5.71425 4.23926 5.32444 4.23926C4.93463 4.23926 4.61864 4.55525 4.61864 4.94506V5.35301H4.21069C3.82088 5.35301 3.50488 5.669 3.50488 6.05881C3.50488 6.44863 3.82088 6.76462 4.21069 6.76462H4.61864V7.17256C4.61864 7.56238 4.93463 7.87837 5.32444 7.87837C5.71425 7.87837 6.03025 7.56238 6.03025 7.17256V6.76462H6.43824C6.82805 6.76462 7.14404 6.44863 7.14404 6.05881C7.144 5.669 6.82801 5.35301 6.43824 5.35301Z" fill="#DAD8DB"/>
<path d="M16.9035 3.78418C16.5521 3.78418 16.2646 4.07164 16.2646 4.423C16.2646 4.77435 16.5521 5.06181 16.9035 5.06181C17.2548 5.06181 17.5423 4.77435 17.5423 4.423C17.5423 4.07164 17.2548 3.78418 16.9035 3.78418Z" fill="#C4DBF9"/>
<path d="M16.9035 3.78418C16.5521 3.78418 16.2646 4.07164 16.2646 4.423C16.2646 4.77435 16.5521 5.06181 16.9035 5.06181C17.2548 5.06181 17.5423 4.77435 17.5423 4.423C17.5423 4.07164 17.2548 3.78418 16.9035 3.78418Z" fill="#B3E59F"/>
<path d="M16.9035 7.05469C16.5521 7.05469 16.2646 7.34215 16.2646 7.6935C16.2646 8.04486 16.5521 8.33232 16.9035 8.33232C17.2548 8.33232 17.5423 8.04486 17.5423 7.6935C17.5423 7.34215 17.2548 7.05469 16.9035 7.05469Z" fill="#BED8FB"/>
<path d="M19.177 6.05776C19.177 5.70641 18.8896 5.41895 18.5382 5.41895C18.1869 5.41895 17.8994 5.70641 17.8994 6.05776C17.8994 6.40912 18.1869 6.69658 18.5382 6.69658C18.8896 6.69654 19.177 6.40907 19.177 6.05776Z" fill="#EDC963"/>
<path d="M15.9065 6.05776C15.9065 5.70641 15.6191 5.41895 15.2677 5.41895C14.9164 5.41895 14.6289 5.70641 14.6289 6.05776C14.6289 6.40912 14.9164 6.69658 15.2677 6.69658C15.6191 6.69654 15.9065 6.40907 15.9065 6.05776Z" fill="#DF667C"/>
<path d="M8.94195 4.43791H13.058C13.4766 4.43791 13.9198 3.74903 13.9198 3.3584H8.08008C8.1102 3.74903 8.52334 4.43791 8.94195 4.43791Z" fill="#A6AEC4"/>
<path d="M7.42621 9.89715C6.99193 9.89715 6.61977 9.63147 6.46311 9.25391C6.41206 9.37688 6.38379 9.51168 6.38379 9.65309C6.38379 10.2288 6.85052 10.6956 7.42625 10.6956C8.00199 10.6956 8.46872 10.2288 8.46872 9.65309C8.46872 9.51168 8.4404 9.37688 8.3894 9.25391C8.23265 9.63152 7.8605 9.89715 7.42621 9.89715Z" fill="#C8C5C9"/>
<path d="M13.6104 9.25364C13.6104 9.64947 14.1392 10.2961 14.5735 10.2961C15.0078 10.2961 15.5366 9.64641 15.5366 9.25364C15.3799 8.87603 15.0078 8.61035 14.5735 8.61035C14.1392 8.61035 13.767 8.87603 13.6104 9.25364Z" fill="#DAD8DB"/>
<path d="M14.5737 9.89715C14.1394 9.89715 13.7673 9.63147 13.6106 9.25391C13.5595 9.37688 13.5312 9.51168 13.5312 9.65309C13.5312 10.2288 13.998 10.6956 14.5737 10.6956C15.1495 10.6956 15.6162 10.2288 15.6162 9.65309C15.6162 9.51168 15.5879 9.37688 15.5369 9.25391C15.3802 9.63152 15.008 9.89715 14.5737 9.89715Z" fill="#C8C5C9"/>
<path d="M13.0578 4.03873H8.94177C8.52317 4.03873 8.17319 3.74843 8.07991 3.3584H8.05469V3.95C8.05469 4.43993 8.45185 4.83709 8.94177 4.83709H13.0578C13.5477 4.83709 13.9449 4.43993 13.9449 3.95V3.3584H13.9196C13.8264 3.74843 13.4764 4.03873 13.0578 4.03873Z" fill="#959DB0"/>
</svg>
