<svg height="512" viewBox="0 0 64 64" width="512" xmlns="http://www.w3.org/2000/svg"><g id="Discover"><path d="m61.71 56.05-6.71-6.71v-39.34h6a1 1 0 0 0 1-1 7.008 7.008 0 0 0 -7-7h-41a5 5 0 0 0 -5 5v47h-6a1 1 0 0 0 -1 1 7.008 7.008 0 0 0 7 7h45a1 1 0 0 0 1-1v-.34l1.05 1.05a4 4 0 0 0 5.66-5.66zm-6.71-52.05a5.009 5.009 0 0 1 4.9 4h-4.9zm-46 56a5.009 5.009 0 0 1 -4.9-4h40.01a6.945 6.945 0 0 0 3 4zm44 0c-2.99 0-7-2.47-7-5a1 1 0 0 0 -1-1h-34v-47a3.009 3.009 0 0 1 3-3h39v43.34l-.49-.48a1 1 0 0 0 -1.41 0l-1.41 1.41-4.28-4.27h5.59v-2h-4.33a15.949 15.949 0 0 0 1.07-2h3.26v-2h-2.56a14.768 14.768 0 0 0 .41-2h2.15v-2h-2a14.712 14.712 0 0 0 -.15-2h2.15v-2h-2.56a14.769 14.769 0 0 0 -.7-2h3.26v-2h-4.33a14.836 14.836 0 0 0 -1.52-2h5.85v-2h-8.04a14.88 14.88 0 0 0 -17.92 0h-8.04v2h5.85a14.836 14.836 0 0 0 -1.52 2h-4.33v2h3.26a14.769 14.769 0 0 0 -.7 2h-2.56v2h2.15a14.712 14.712 0 0 0 -.15 2h-2v2h2.15a14.768 14.768 0 0 0 .41 2h-2.56v2h3.26a15.949 15.949 0 0 0 1.07 2h-4.33v2h5.85a14.916 14.916 0 0 0 21.01 1.27l4.41 4.42-1.41 1.41a1 1 0 0 0 0 1.41l6.14 6.15zm-19-13a13 13 0 1 1 13-13 13.012 13.012 0 0 1 -13 13zm26.29 13.29a2 2 0 0 1 -2.83 0l-8.48-8.48 2.83-2.83 8.48 8.48a2 2 0 0 1 0 2.83z"/><path d="m13 22h2v2h-2z"/><path d="m13 26h2v2h-2z"/><path d="m13 42h2v2h-2z"/><path d="m13 30h2v2h-2z"/><path d="m13 38h2v2h-2z"/><path d="m13 34h2v2h-2z"/><path d="m34 38a4 4 0 1 0 -4-4 4 4 0 0 0 4 4zm0-6a2 2 0 1 1 -2 2 2 2 0 0 1 2-2z"/><path d="m25.757 36.97.669.167-.355.591a1 1 0 0 0 .151 1.222l2.828 2.828a1 1 0 0 0 1.222.151l.591-.355.167.669a1 1 0 0 0 .97.757h4a1 1 0 0 0 .97-.757l.167-.669.591.355a1 1 0 0 0 1.222-.151l2.828-2.828a1 1 0 0 0 .151-1.222l-.355-.591.669-.167a1 1 0 0 0 .757-.97v-4a1 1 0 0 0 -.757-.97l-.669-.167.355-.591a1 1 0 0 0 -.151-1.222l-2.828-2.828a1 1 0 0 0 -1.222-.151l-.591.355-.167-.669a1 1 0 0 0 -.97-.757h-4a1 1 0 0 0 -.97.757l-.167.669-.591-.355a1 1 0 0 0 -1.222.151l-2.828 2.828a1 1 0 0 0 -.151 1.222l.355.591-.669.167a1 1 0 0 0 -.757.97v4a1 1 0 0 0 .757.97zm1.243-4.189 1.221-.3a1 1 0 0 0 .614-1.485l-.647-1.079 1.724-1.724 1.079.647a1 1 0 0 0 1.485-.615l.3-1.22h2.438l.3 1.22a1 1 0 0 0 1.485.615l1.079-.647 1.724 1.724-.647 1.079a1 1 0 0 0 .614 1.485l1.221.3v2.438l-1.221.3a1 1 0 0 0 -.614 1.485l.647 1.079-1.724 1.724-1.079-.647a1 1 0 0 0 -1.485.614l-.295 1.226h-2.438l-.3-1.221a1 1 0 0 0 -1.485-.614l-1.079.647-1.724-1.724.647-1.079a1 1 0 0 0 -.614-1.485l-1.226-.305z"/><path d="m20 14h24a1 1 0 0 0 1-1v-6a1 1 0 0 0 -1-1h-24a1 1 0 0 0 -1 1v6a1 1 0 0 0 1 1zm1-6h22v4h-22z"/></g></svg>