<svg width="20" height="20" viewBox="0 0 20 20" fill="none" xmlns="http://www.w3.org/2000/svg">
<path fill-rule="evenodd" clip-rule="evenodd" d="M1.05727 1.05752C1.57797 0.536818 2.42219 0.536818 2.94289 1.05752L10.0001 8.11471L17.0573 1.05752C17.578 0.536817 18.4222 0.536817 18.9429 1.05752C19.4636 1.57822 19.4636 2.42244 18.9429 2.94313L11.8857 10.0003L18.9429 17.0575C19.4636 17.5782 19.4636 18.4224 18.9429 18.9431C18.4222 19.4638 17.578 19.4638 17.0573 18.9431L10.0001 11.8859L2.94289 18.9431C2.42219 19.4638 1.57797 19.4638 1.05727 18.9431C0.536573 18.4224 0.536573 17.5782 1.05727 17.0575L8.11446 10.0003L1.05727 2.94314C0.536573 2.42244 0.536573 1.57822 1.05727 1.05752Z" fill="#23262F"/>
</svg>
