<svg width="150" height="36" viewBox="0 0 150 36" fill="none" xmlns="http://www.w3.org/2000/svg">
<path d="M31 0H5C2.23858 0 0 2.23858 0 5V31C0 33.7614 2.23858 36 5 36H31C33.7614 36 36 33.7614 36 31V5C36 2.23858 33.7614 0 31 0Z" fill="url(#paint0_linear)"/>
<path d="M27.9971 8.46973H15.3613V10.3513H27.9971V8.46973Z" fill="white"/>
<path d="M10.6387 28.4699L10.6387 8.46973H8.00157L8.00157 28.4699H10.6387Z" fill="white"/>
<path d="M28 28.4688L28 16.377H25.3629L25.3629 28.4688H28Z" fill="white"/>
<path d="M25.3631 28.4523L8 8.46973H10.6371L28.0002 28.4523H25.3631Z" fill="white"/>
<path d="M17.9984 14.817V8.46973H15.3613V11.7801L17.9984 14.817Z" fill="white"/>
<path d="M27.9969 11.7803H19.6211V13.6618H27.9969V11.7803Z" fill="white"/>
<path d="M22.2611 19.6563V11.7803H19.6211V16.6194L22.2611 19.6563Z" fill="white"/>
<path d="M58.5755 12.704L50.3435 32.288H46.7675L49.6475 25.664L44.3195 12.704H48.0875L51.5195 21.992L54.9995 12.704H58.5755ZM65.8108 26.216C64.5308 26.216 63.3788 25.936 62.3548 25.376C61.3308 24.8 60.5228 23.992 59.9308 22.952C59.3548 21.912 59.0668 20.712 59.0668 19.352C59.0668 17.992 59.3628 16.792 59.9548 15.752C60.5628 14.712 61.3868 13.912 62.4268 13.352C63.4668 12.776 64.6268 12.488 65.9068 12.488C67.1868 12.488 68.3468 12.776 69.3868 13.352C70.4268 13.912 71.2428 14.712 71.8348 15.752C72.4428 16.792 72.7468 17.992 72.7468 19.352C72.7468 20.712 72.4348 21.912 71.8108 22.952C71.2028 23.992 70.3708 24.8 69.3148 25.376C68.2748 25.936 67.1068 26.216 65.8108 26.216ZM65.8108 23.288C66.4188 23.288 66.9868 23.144 67.5148 22.856C68.0588 22.552 68.4908 22.104 68.8108 21.512C69.1308 20.92 69.2908 20.2 69.2908 19.352C69.2908 18.088 68.9548 17.12 68.2828 16.448C67.6268 15.76 66.8188 15.416 65.8588 15.416C64.8988 15.416 64.0908 15.76 63.4348 16.448C62.7948 17.12 62.4748 18.088 62.4748 19.352C62.4748 20.616 62.7868 21.592 63.4108 22.28C64.0508 22.952 64.8508 23.288 65.8108 23.288ZM87.2835 12.704V26H83.8995V24.32C83.4675 24.896 82.8995 25.352 82.1955 25.688C81.5075 26.008 80.7555 26.168 79.9395 26.168C78.8995 26.168 77.9795 25.952 77.1795 25.52C76.3795 25.072 75.7475 24.424 75.2835 23.576C74.8355 22.712 74.6115 21.688 74.6115 20.504V12.704H77.9715V20.024C77.9715 21.08 78.2355 21.896 78.7635 22.472C79.2915 23.032 80.0115 23.312 80.9235 23.312C81.8515 23.312 82.5795 23.032 83.1075 22.472C83.6355 21.896 83.8995 21.08 83.8995 20.024V12.704H87.2835ZM93.4787 14.768C93.9107 14.064 94.4707 13.512 95.1587 13.112C95.8627 12.712 96.6627 12.512 97.5587 12.512V16.04H96.6707C95.6147 16.04 94.8147 16.288 94.2707 16.784C93.7427 17.28 93.4787 18.144 93.4787 19.376V26H90.1187V12.704H93.4787V14.768ZM102.702 8.24V26H99.3418V8.24H102.702ZM111.445 26.216C110.165 26.216 109.013 25.936 107.989 25.376C106.965 24.8 106.157 23.992 105.565 22.952C104.989 21.912 104.701 20.712 104.701 19.352C104.701 17.992 104.997 16.792 105.589 15.752C106.197 14.712 107.021 13.912 108.061 13.352C109.101 12.776 110.261 12.488 111.541 12.488C112.821 12.488 113.981 12.776 115.021 13.352C116.061 13.912 116.877 14.712 117.469 15.752C118.077 16.792 118.381 17.992 118.381 19.352C118.381 20.712 118.069 21.912 117.445 22.952C116.837 23.992 116.005 24.8 114.949 25.376C113.909 25.936 112.741 26.216 111.445 26.216ZM111.445 23.288C112.053 23.288 112.621 23.144 113.149 22.856C113.693 22.552 114.125 22.104 114.445 21.512C114.765 20.92 114.925 20.2 114.925 19.352C114.925 18.088 114.589 17.12 113.917 16.448C113.261 15.76 112.453 15.416 111.493 15.416C110.533 15.416 109.725 15.76 109.069 16.448C108.429 17.12 108.109 18.088 108.109 19.352C108.109 20.616 108.421 21.592 109.045 22.28C109.685 22.952 110.485 23.288 111.445 23.288ZM125.574 12.488C126.566 12.488 127.438 12.688 128.19 13.088C128.942 13.472 129.534 13.976 129.966 14.6V12.704H133.35V26.096C133.35 27.328 133.102 28.424 132.606 29.384C132.11 30.36 131.366 31.128 130.374 31.688C129.382 32.264 128.182 32.552 126.774 32.552C124.886 32.552 123.334 32.112 122.118 31.232C120.918 30.352 120.238 29.152 120.078 27.632H123.414C123.59 28.24 123.966 28.72 124.542 29.072C125.134 29.44 125.846 29.624 126.678 29.624C127.654 29.624 128.446 29.328 129.054 28.736C129.662 28.16 129.966 27.28 129.966 26.096V24.032C129.534 24.656 128.934 25.176 128.166 25.592C127.414 26.008 126.55 26.216 125.574 26.216C124.454 26.216 123.43 25.928 122.502 25.352C121.574 24.776 120.838 23.968 120.294 22.928C119.766 21.872 119.502 20.664 119.502 19.304C119.502 17.96 119.766 16.768 120.294 15.728C120.838 14.688 121.566 13.888 122.478 13.328C123.406 12.768 124.438 12.488 125.574 12.488ZM129.966 19.352C129.966 18.536 129.806 17.84 129.486 17.264C129.166 16.672 128.734 16.224 128.19 15.92C127.646 15.6 127.062 15.44 126.438 15.44C125.814 15.44 125.238 15.592 124.71 15.896C124.182 16.2 123.75 16.648 123.414 17.24C123.094 17.816 122.934 18.504 122.934 19.304C122.934 20.104 123.094 20.808 123.414 21.416C123.75 22.008 124.182 22.464 124.71 22.784C125.254 23.104 125.83 23.264 126.438 23.264C127.062 23.264 127.646 23.112 128.19 22.808C128.734 22.488 129.166 22.04 129.486 21.464C129.806 20.872 129.966 20.168 129.966 19.352ZM142.056 26.216C140.776 26.216 139.624 25.936 138.6 25.376C137.576 24.8 136.768 23.992 136.176 22.952C135.6 21.912 135.312 20.712 135.312 19.352C135.312 17.992 135.608 16.792 136.2 15.752C136.808 14.712 137.632 13.912 138.672 13.352C139.712 12.776 140.872 12.488 142.152 12.488C143.432 12.488 144.592 12.776 145.632 13.352C146.672 13.912 147.488 14.712 148.08 15.752C148.688 16.792 148.992 17.992 148.992 19.352C148.992 20.712 148.68 21.912 148.056 22.952C147.448 23.992 146.616 24.8 145.56 25.376C144.52 25.936 143.352 26.216 142.056 26.216ZM142.056 23.288C142.664 23.288 143.232 23.144 143.76 22.856C144.304 22.552 144.736 22.104 145.056 21.512C145.376 20.92 145.536 20.2 145.536 19.352C145.536 18.088 145.2 17.12 144.528 16.448C143.872 15.76 143.064 15.416 142.104 15.416C141.144 15.416 140.336 15.76 139.68 16.448C139.04 17.12 138.72 18.088 138.72 19.352C138.72 20.616 139.032 21.592 139.656 22.28C140.296 22.952 141.096 23.288 142.056 23.288Z" fill="black"/>
<defs>
<linearGradient id="paint0_linear" x1="-6.04708" y1="-6.04708" x2="49.9094" y2="49.9094" gradientUnits="userSpaceOnUse">
<stop stop-color="#FF0A6C"/>
<stop offset="1" stop-color="#2D27FF"/>
</linearGradient>
</defs>
</svg>
