<svg width="74" height="74" viewBox="0 0 74 74" fill="none" xmlns="http://www.w3.org/2000/svg">
<g clip-path="url(#clip0)">
<path d="M66.7734 55.7891C67.5712 55.7891 68.2188 55.1415 68.2188 54.3438C68.2188 53.546 67.5712 52.8984 66.7734 52.8984C65.9757 52.8984 65.3281 53.546 65.3281 54.3438C65.3281 55.1415 65.9757 55.7891 66.7734 55.7891Z" fill="#777E90"/>
<path d="M4.33594 74H69.6641C72.055 74 74 72.055 74 69.6641V15.8984C74 15.1001 73.353 14.4531 72.5547 14.4531H62.4375C62.4375 6.48358 55.9539 0 47.9844 0C39.9979 0 33.5312 6.46043 33.5312 14.4531H22.5469C21.7486 14.4531 21.1016 15.1001 21.1016 15.8984V32.6641H1.44531C0.647003 32.6641 0 33.3111 0 34.1094V69.6641C0 72.055 1.94496 74 4.33594 74ZM2.89062 69.6641V64.4609H36.4219V69.6641C36.4219 70.4612 35.7737 71.1094 34.9766 71.1094H4.33594C3.53876 71.1094 2.89062 70.4612 2.89062 69.6641ZM69.6641 71.1094H39.0641C39.2244 70.6572 39.3125 70.1711 39.3125 69.6641V64.4609H71.1094V69.6641C71.1094 70.4612 70.4612 71.1094 69.6641 71.1094ZM47.9844 2.89062C54.3601 2.89062 59.5469 8.07738 59.5469 14.4531H36.4219C36.4219 8.06326 41.5906 2.89062 47.9844 2.89062ZM23.9922 17.3438H33.5312V23.9922H32.0859C31.2876 23.9922 30.6406 24.6392 30.6406 25.4375C30.6406 26.2358 31.2876 26.8828 32.0859 26.8828H37.8672C38.6655 26.8828 39.3125 26.2358 39.3125 25.4375C39.3125 24.6392 38.6655 23.9922 37.8672 23.9922H36.4219V17.3438H59.5469V23.9922H58.1016C57.3033 23.9922 56.6562 24.6392 56.6562 25.4375C56.6562 26.2358 57.3033 26.8828 58.1016 26.8828H63.8828C64.6811 26.8828 65.3281 26.2358 65.3281 25.4375C65.3281 24.6392 64.6811 23.9922 63.8828 23.9922H62.4375V17.3438H71.1094V61.5703H39.3125V34.1094C39.3125 33.3111 38.6655 32.6641 37.8672 32.6641H23.9922V17.3438ZM36.4219 35.5547V61.5703H2.89062V35.5547H36.4219Z" fill="#777E90"/>
<path d="M10.9844 44.2266V47.1172C10.9844 51.9082 14.8653 55.7891 19.6562 55.7891C24.4382 55.7891 28.3281 51.8991 28.3281 47.1172V44.2266C29.1264 44.2266 29.7734 43.5796 29.7734 42.7812C29.7734 41.9829 29.1264 41.3359 28.3281 41.3359H25.4375C24.6392 41.3359 23.9922 41.9829 23.9922 42.7812C23.9922 43.5796 24.6392 44.2266 25.4375 44.2266V47.1172C25.4375 50.3048 22.8438 52.8984 19.6562 52.8984C16.463 52.8984 13.875 50.3104 13.875 47.1172V44.2266C14.6733 44.2266 15.3203 43.5796 15.3203 42.7812C15.3203 41.9829 14.6733 41.3359 13.875 41.3359H10.9844C10.1861 41.3359 9.53906 41.9829 9.53906 42.7812C9.53906 43.5796 10.1861 44.2266 10.9844 44.2266Z" fill="#777E90"/>
<path d="M66.7734 50.0078C67.5717 50.0078 68.2188 49.3608 68.2188 48.5625V37C68.2188 36.2017 67.5717 35.5547 66.7734 35.5547C65.9751 35.5547 65.3281 36.2017 65.3281 37V48.5625C65.3281 49.3608 65.9751 50.0078 66.7734 50.0078Z" fill="#777E90"/>
<path fill-rule="evenodd" clip-rule="evenodd" d="M10 3C8.04777 3 6.24816 3.161 4.80371 3.35177C3.50372 3.52346 2.52346 4.50372 2.35177 5.80371C2.16101 7.24816 2 9.04777 2 11C2 12.9522 2.161 14.7518 2.35177 16.1963C2.52346 17.4963 3.50372 18.4765 4.80371 18.6482C6.24816 18.839 8.04777 19 10 19C11.9522 19 13.7518 18.839 15.1963 18.6482C16.4963 18.4765 17.4765 17.4963 17.6482 16.1963C17.839 14.7518 18 12.9522 18 11C18 9.04777 17.839 7.24816 17.6482 5.80371C17.4765 4.50372 16.4963 3.52346 15.1963 3.35177C13.7518 3.16101 11.9522 3 10 3ZM4.54184 1.36899C2.34504 1.65912 0.659124 3.34504 0.368993 5.54184C0.169534 7.05208 0 8.94127 0 11C0 13.0587 0.169534 14.9479 0.368993 16.4582C0.659124 18.655 2.34504 20.3409 4.54184 20.631C6.05208 20.8305 7.94127 21 10 21C12.0587 21 13.9479 20.8305 15.4582 20.631C17.655 20.3409 19.3409 18.655 19.631 16.4582C19.8305 14.9479 20 13.0587 20 11C20 8.94127 19.8305 7.05208 19.631 5.54184C19.3409 3.34504 17.655 1.65912 15.4582 1.36899C13.9479 1.16953 12.0587 1 10 1C7.94127 1 6.05208 1.16953 4.54184 1.36899Z" fill="#777E91"/>
<path fill-rule="evenodd" clip-rule="evenodd" d="M6.29289 7.29289C6.68342 6.90237 7.31658 6.90237 7.70711 7.29289L10 9.58579L12.2929 7.29289C12.6834 6.90237 13.3166 6.90237 13.7071 7.29289C14.0976 7.68342 14.0976 8.31658 13.7071 8.70711L11.4142 11L13.7071 13.2929C14.0976 13.6834 14.0976 14.3166 13.7071 14.7071C13.3166 15.0976 12.6834 15.0976 12.2929 14.7071L10 12.4142L7.70711 14.7071C7.31658 15.0976 6.68342 15.0976 6.29289 14.7071C5.90237 14.3166 5.90237 13.6834 6.29289 13.2929L8.58579 11L6.29289 8.70711C5.90237 8.31658 5.90237 7.68342 6.29289 7.29289Z" fill="#777E91"/>
</g>
<defs>
<clipPath id="clip0">
<rect width="74" height="74" fill="white"/>
</clipPath>
</defs>
</svg>
